<svg xmlns="http://www.w3.org/2000/svg" xmlns:xlink="http://www.w3.org/1999/xlink" width="1280" zoomAndPan="magnify" viewBox="0 0 960 359.999987" height="480" preserveAspectRatio="xMidYMid meet" version="1.0"><defs><clipPath id="f370f112e0"><path d="M 198.886719 26.164062 L 248.742188 26.164062 L 248.742188 273.296875 L 198.886719 273.296875 Z M 198.886719 26.164062 " clip-rule="nonzero"/></clipPath><clipPath id="972241875c"><path d="M 18 284.292969 L 248.75 284.292969 L 248.75 334.144531 L 18 334.144531 Z M 18 284.292969 " clip-rule="nonzero"/></clipPath><clipPath id="65815febc1"><path d="M 18 26.167969 L 248.75 26.167969 L 248.75 76.019531 L 18 76.019531 Z M 18 26.167969 " clip-rule="nonzero"/></clipPath><clipPath id="00989f0b82"><path d="M 17.683594 26.164062 L 67.535156 26.164062 L 67.535156 333.828125 L 17.683594 333.828125 Z M 17.683594 26.164062 " clip-rule="nonzero"/></clipPath><clipPath id="fc82976c99"><path d="M 18 155.242188 L 191.0625 155.242188 L 191.0625 205.097656 L 18 205.097656 Z M 18 155.242188 " clip-rule="nonzero"/></clipPath><clipPath id="17046c9cab"><path d="M 206 26 L 423 26 L 423 334 L 206 334 Z M 206 26 " clip-rule="nonzero"/></clipPath><clipPath id="15f972ce95"><path d="M 249.230469 26.164062 L 422.417969 307.601562 L 379.960938 333.726562 L 206.773438 52.292969 Z M 249.230469 26.164062 " clip-rule="nonzero"/></clipPath><clipPath id="b0b375ded7"><path d="M 380.1875 26.164062 L 430.039062 26.164062 L 430.039062 333.828125 L 380.1875 333.828125 Z M 380.1875 26.164062 " clip-rule="nonzero"/></clipPath><clipPath id="7de22f9ffd"><path d="M 533.3125 25.84375 L 780.441406 25.84375 L 780.441406 75.699219 L 533.3125 75.699219 Z M 533.3125 25.84375 " clip-rule="nonzero"/></clipPath><clipPath id="10b2a11dc3"><path d="M 533.3125 283.96875 L 780.441406 283.96875 L 780.441406 333.824219 L 533.3125 333.824219 Z M 533.3125 283.96875 " clip-rule="nonzero"/></clipPath><clipPath id="237bc141e2"><path d="M 533.46875 155.242188 L 706.527344 155.242188 L 706.527344 205.097656 L 533.46875 205.097656 Z M 533.46875 155.242188 " clip-rule="nonzero"/></clipPath><clipPath id="4790cc87ad"><path d="M 533.148438 26.164062 L 583.003906 26.164062 L 583.003906 333.828125 L 533.148438 333.828125 Z M 533.148438 26.164062 " clip-rule="nonzero"/></clipPath><clipPath id="b6c32d0922"><path d="M 442.863281 26.167969 L 673.613281 26.167969 L 673.613281 76.019531 L 442.863281 76.019531 Z M 442.863281 26.167969 " clip-rule="nonzero"/></clipPath><clipPath id="48c11d1ea4"><path d="M 721.878906 26.164062 L 771.734375 26.164062 L 771.734375 333.828125 L 721.878906 333.828125 Z M 721.878906 26.164062 " clip-rule="nonzero"/></clipPath><clipPath id="1128295221"><path d="M 721.925781 26.167969 L 941.992188 26.167969 L 941.992188 204.929688 L 721.925781 204.929688 Z M 721.925781 26.167969 " clip-rule="nonzero"/></clipPath><clipPath id="72c12ae976"><path d="M 769.453125 66.054688 L 894.800781 66.054688 L 894.800781 165.050781 L 769.453125 165.050781 Z M 769.453125 66.054688 " clip-rule="nonzero"/></clipPath><clipPath id="4d6f603f77"><path d="M 821.992188 199.148438 L 921.699219 199.148438 L 921.699219 333.75 L 821.992188 333.75 Z M 821.992188 199.148438 " clip-rule="nonzero"/></clipPath></defs><g clip-path="url(#f370f112e0)"><path fill="#77838d" d="M 248.742188 26.1875 L 248.742188 273.273438 L 198.886719 273.273438 L 198.886719 26.1875 L 248.742188 26.1875 " fill-opacity="1" fill-rule="nonzero"/></g><g clip-path="url(#972241875c)"><path fill="#545454" d="M 18.023438 284.292969 L 248.726562 284.292969 L 248.726562 334.144531 L 18.023438 334.144531 L 18.023438 284.292969 " fill-opacity="1" fill-rule="nonzero"/></g><g clip-path="url(#65815febc1)"><path fill="#545454" d="M 18.023438 26.167969 L 248.726562 26.167969 L 248.726562 76.019531 L 18.023438 76.019531 L 18.023438 26.167969 " fill-opacity="1" fill-rule="nonzero"/></g><g clip-path="url(#00989f0b82)"><path fill="#545454" d="M 67.535156 26.195312 L 67.535156 333.796875 L 17.683594 333.796875 L 17.683594 26.195312 L 67.535156 26.195312 " fill-opacity="1" fill-rule="nonzero"/></g><g clip-path="url(#fc82976c99)"><path fill="#545454" d="M 18.011719 155.242188 L 191.050781 155.242188 L 191.050781 205.097656 L 18.011719 205.097656 L 18.011719 155.242188 " fill-opacity="1" fill-rule="nonzero"/></g><g clip-path="url(#17046c9cab)"><g clip-path="url(#15f972ce95)"><path fill="#545454" d="M 249.246094 26.195312 L 422.402344 307.574219 L 379.945312 333.699219 L 206.789062 52.320312 L 249.246094 26.195312 " fill-opacity="1" fill-rule="nonzero"/></g></g><g clip-path="url(#b0b375ded7)"><path fill="#545454" d="M 430.039062 26.195312 L 430.039062 333.796875 L 380.1875 333.796875 L 380.1875 26.195312 L 430.039062 26.195312 " fill-opacity="1" fill-rule="nonzero"/></g><g clip-path="url(#7de22f9ffd)"><path fill="#77838d" d="M 780.417969 75.699219 L 533.332031 75.699219 L 533.332031 25.84375 L 780.417969 25.84375 L 780.417969 75.699219 " fill-opacity="1" fill-rule="nonzero"/></g><g clip-path="url(#10b2a11dc3)"><path fill="#77838d" d="M 780.417969 333.824219 L 533.332031 333.824219 L 533.332031 283.96875 L 780.417969 283.96875 L 780.417969 333.824219 " fill-opacity="1" fill-rule="nonzero"/></g><g clip-path="url(#237bc141e2)"><path fill="#77838d" d="M 533.480469 155.242188 L 706.515625 155.242188 L 706.515625 205.097656 L 533.480469 205.097656 L 533.480469 155.242188 " fill-opacity="1" fill-rule="nonzero"/></g><g clip-path="url(#4790cc87ad)"><path fill="#545454" d="M 583.003906 26.195312 L 583.003906 333.796875 L 533.148438 333.796875 L 533.148438 26.195312 L 583.003906 26.195312 " fill-opacity="1" fill-rule="nonzero"/></g><g clip-path="url(#b6c32d0922)"><path fill="#545454" d="M 442.886719 26.167969 L 673.589844 26.167969 L 673.589844 76.019531 L 442.886719 76.019531 L 442.886719 26.167969 " fill-opacity="1" fill-rule="nonzero"/></g><g clip-path="url(#48c11d1ea4)"><path fill="#545454" d="M 771.734375 26.195312 L 771.734375 333.796875 L 721.878906 333.796875 L 721.878906 26.195312 L 771.734375 26.195312 " fill-opacity="1" fill-rule="nonzero"/></g><g clip-path="url(#1128295221)"><path fill="#545454" d="M 936.828125 85.789062 C 939.945312 94.921875 941.988281 105.371094 941.988281 115.597656 C 941.988281 125.824219 940.238281 135.664062 937.121094 144.730469 C 937.023438 144.925781 937.023438 145.117188 936.925781 145.308594 C 924.457031 179.363281 891.53125 204.445312 853.050781 204.929688 L 721.929688 204.929688 L 721.929688 26.167969 L 852.953125 26.167969 C 891.722656 26.652344 924.648438 51.347656 936.828125 85.789062 " fill-opacity="1" fill-rule="nonzero"/></g><g clip-path="url(#72c12ae976)"><path fill="#ffffff" d="M 891.945312 99.070312 C 893.667969 104.128906 894.796875 109.914062 894.796875 115.578125 C 894.796875 121.242188 893.828125 126.691406 892.105469 131.710938 C 892.054688 131.820312 892.054688 131.925781 892 132.03125 C 885.113281 150.890625 866.925781 164.78125 845.589844 165.050781 L 769.457031 165.050781 L 769.457031 66.054688 L 845.535156 66.054688 C 867.035156 66.320312 885.21875 80 891.945312 99.070312 " fill-opacity="1" fill-rule="nonzero"/></g><g clip-path="url(#4d6f603f77)"><path fill="#545454" d="M 873.789062 199.152344 L 821.992188 199.152344 L 869.90625 333.746094 L 921.699219 333.746094 L 873.789062 199.152344 " fill-opacity="1" fill-rule="nonzero"/></g></svg>