<svg xmlns="http://www.w3.org/2000/svg" xmlns:xlink="http://www.w3.org/1999/xlink" width="500" zoomAndPan="magnify" viewBox="0 0 375 374.999991" height="500" preserveAspectRatio="xMidYMid meet" version="1.0"><defs><g/><clipPath id="d07695e23f"><path d="M 37.5 215.503906 L 336 215.503906 L 336 337.753906 L 37.5 337.753906 Z M 37.5 215.503906 " clip-rule="nonzero"/></clipPath></defs><path stroke-linecap="butt" transform="matrix(39.010881, 0, 0, 38.621354, 166.624006, 128.042804)" fill="none" stroke-linejoin="miter" d="M 0.0000254709 0.00000425563 L 2.153271 0.00000425563 " stroke="#393939" stroke-width="1" stroke-opacity="1" stroke-miterlimit="4"/><path stroke-linecap="butt" transform="matrix(26.249998, 0, 0, 26.249998, 186.228801, 196.380515)" fill="none" stroke-linejoin="miter" d="M 0.0000635306 -0.0000612897 L 5.71435 -0.0000612897 " stroke="#393939" stroke-width="1" stroke-opacity="1" stroke-miterlimit="4"/><path stroke-linecap="butt" transform="matrix(0.000000000000002393, 39.074591, -38.621354, 0.000000000000002365, 181.320607, 44.068173)" fill="none" stroke-linejoin="miter" d="M -0.0000452175 0.00000762514 L 4.241942 0.00000762514 " stroke="#393939" stroke-width="1" stroke-opacity="1" stroke-miterlimit="4"/><path stroke-linecap="butt" transform="matrix(39.010881, 0, 0, 38.621354, 169.143349, 63.379904)" fill="none" stroke-linejoin="miter" d="M 0.0000303161 -0.00002583 L 4.306521 -0.00002583 " stroke="#393939" stroke-width="1" stroke-opacity="1" stroke-miterlimit="4"/><path stroke-linecap="butt" transform="matrix(28.507952, 0, 0, 28.499998, 168.273188, 195.255515)" fill="none" stroke-linejoin="miter" d="M 0.0000087572 -0.0000564536 L 5.893238 -0.0000564536 " stroke="#393939" stroke-width="1" stroke-opacity="1" stroke-miterlimit="4"/><path stroke-linecap="butt" transform="matrix(0.00000000000000179, 29.235419, -29.110045, 0.000000000000001782, 269.634011, 98.23443)" fill="none" stroke-linejoin="miter" d="M -0.00000186586 0.0000411643 L 2.411724 0.0000411643 " stroke="#a6a6a6" stroke-width="1" stroke-opacity="1" stroke-miterlimit="4"/><path stroke-linecap="butt" transform="matrix(19.826813, 21.5187, -21.408302, 19.725094, 273.104372, 108.098539)" fill="none" stroke-linejoin="miter" d="M 0.00000319993 -0.0000482588 L 2.307352 0.0000119241 " stroke="#a6a6a6" stroke-width="1" stroke-opacity="1" stroke-miterlimit="4"/><path stroke-linecap="butt" transform="matrix(0.00000000000000179, 29.235419, -29.110045, 0.000000000000001782, 322.540003, 98.23443)" fill="none" stroke-linejoin="miter" d="M -0.00000186586 0.0000323194 L 2.411724 0.0000323194 " stroke="#a6a6a6" stroke-width="1" stroke-opacity="1" stroke-miterlimit="4"/><g clip-path="url(#d07695e23f)"><path fill="#545454" d="M 37.5 215.503906 L 336 215.503906 L 336 337.753906 L 37.5 337.753906 L 37.5 215.503906 " fill-opacity="1" fill-rule="nonzero"/></g><g fill="#ffffff" fill-opacity="1"><g transform="translate(49.564951, 311.377744)"><g><path d="M 25.390625 -56.390625 L 5.375 -56.453125 L 5.375 -65.296875 C 23.757812 -65.253906 42.164062 -65.253906 60.59375 -65.296875 L 60.59375 -56.453125 L 41.375 -56.390625 C 41.375 -46.953125 41.363281 -37.5625 41.34375 -28.21875 C 41.320312 -18.882812 41.332031 -9.5 41.375 -0.0625 C 40.03125 -0.0625 38.6875 -0.0703125 37.34375 -0.09375 C 36 -0.113281 34.675781 -0.125 33.375 -0.125 C 32.070312 -0.125 30.75 -0.113281 29.40625 -0.09375 C 28.070312 -0.0703125 26.734375 -0.0625 25.390625 -0.0625 Z M 25.390625 -56.390625 "/></g></g></g><g fill="#ffffff" fill-opacity="1"><g transform="translate(114.246038, 311.377744)"><g/></g></g><g fill="#ffffff" fill-opacity="1"><g transform="translate(156.349765, 311.377744)"><g><path d="M 57.671875 -0.125 C 53.890625 -0.125 49.597656 -0.113281 44.796875 -0.09375 C 39.992188 -0.0703125 35.066406 -0.0625 30.015625 -0.0625 C 24.972656 -0.0625 20.039062 -0.0625 15.21875 -0.0625 C 10.40625 -0.0625 6.085938 -0.0625 2.265625 -0.0625 L 2.265625 -9.15625 C 2.265625 -14.925781 2.265625 -20.671875 2.265625 -26.390625 C 2.265625 -32.109375 2.28125 -37.859375 2.3125 -43.640625 C 2.3125 -45.628906 2.320312 -47.640625 2.34375 -49.671875 C 2.363281 -51.710938 2.394531 -53.75 2.4375 -55.78125 L 11.53125 -64.9375 C 16.164062 -64.9375 20.476562 -64.945312 24.46875 -64.96875 C 28.457031 -64.988281 32.300781 -65 36 -65 C 39.707031 -65 43.320312 -65 46.84375 -65 C 50.363281 -65 53.972656 -65 57.671875 -65 L 57.671875 -56.515625 L 18.3125 -56.515625 L 18.3125 -40.03125 L 49.984375 -40.03125 L 45.09375 -31.421875 L 18.4375 -31.421875 L 18.375 -8.78125 L 57.671875 -8.734375 Z M 57.671875 -0.125 "/></g></g></g><g fill="#ffffff" fill-opacity="1"><g transform="translate(218.345976, 311.377744)"><g/></g></g><g fill="#ffffff" fill-opacity="1"><g transform="translate(260.449703, 311.377744)"><g><path d="M 23.3125 -33.875 L 46.015625 -33.9375 C 46.015625 -38 46.003906 -41.972656 45.984375 -45.859375 C 45.960938 -49.742188 45.953125 -53.722656 45.953125 -57.796875 L 23.25 -57.734375 C 23.289062 -53.660156 23.3125 -49.679688 23.3125 -45.796875 C 23.3125 -41.910156 23.3125 -37.9375 23.3125 -33.875 Z M 42.84375 -23.5625 L 59.875 -0.125 L 40.578125 -0.125 L 23.4375 -23.5 L 20.265625 -23.5 C 20.222656 -19.59375 20.210938 -15.71875 20.234375 -11.875 C 20.253906 -8.03125 20.285156 -4.132812 20.328125 -0.1875 L 4.265625 -0.1875 L 4.265625 -43.75 C 4.265625 -45.789062 4.285156 -47.828125 4.328125 -49.859375 C 4.367188 -51.890625 4.390625 -53.90625 4.390625 -55.90625 L 13.546875 -65.109375 L 59.015625 -65.109375 C 59.015625 -61.734375 59.003906 -58.367188 58.984375 -55.015625 C 58.960938 -51.660156 58.953125 -48.273438 58.953125 -44.859375 C 58.953125 -42.859375 58.929688 -40.84375 58.890625 -38.8125 C 58.847656 -36.78125 58.828125 -34.742188 58.828125 -32.703125 L 49.734375 -23.5625 Z M 42.84375 -23.5625 "/></g></g></g></svg>